@startuml
left to right direction
package "Restaurant System" {
    class "<<Application>>\nResQService" as ResQService {}

    class "<<Resource>>\nUsers" as ResourceUsers {
        <<POST>> +register(): User
        <<POST>> +login(): User
        <<GET>> +getMe(): User
        <<GET>> +logout(): void
    }

    class "<<Representation>>\nUser" as RepresentationUser {
        -name
        -email
        -role
        -password
        -tel
    }

    class "<<Resource>>\nRestaurants" as ResourceRestaurants {
        <<GET>> +getRestaurants(): Restaurant
        <<POST>> +createRestaurant(): Restaurant
    }

    class "<<Resource>>\nRestaurant" as ResourceRestaurant {
        <<GET>> +getRestaurant(): Restaurant
        <<PUT>> +updateRestaurant(): Restaurant
        <<DELETE>> +deleteRestaurant(): void
    }

    class "<<Representation>>\nRestaurant" as RepresentationRestaurant {
        -name
        -address
        -district
        -province
        -postalcode
        -tel
        -region
    }

    class "<<Resource>>\nReservations" as ResourceReservations {
        <<GET>> +getReservations(): Reservation
        <<POST>> +addReservation(): Reservation
    }

    class "<<Resource>>\nReservation" as ResourceReservation {
        <<GET>> +getReservation(): Reservation
        <<PUT>> +updateReservation(): Reservation
        <<DELETE>> +deleteReservation(): void
    }

    class "<<Representation>>\nReservation" as RepresentationReservation {
        -apptDate
        -user
        -hospital
        -createdAt
    }
}

ResQService ..> ResourceUsers : "/auth\n<<Path>>"
ResourceUsers ..> RepresentationUser : "<<use>>"

ResQService ..> ResourceRestaurants : "/restaurants\n<<Path>>"
ResourceRestaurants ..> ResourceRestaurant : "/{restaurantId}\n<<Path>>"
ResourceRestaurant ..> RepresentationRestaurant : "<<use>>"

ResQService ..> ResourceReservations : "/reservations\n<<Path>>"
ResourceReservations ..> ResourceReservation : "/{reservationId}\n<<Path>>"
ResourceReservation ..> RepresentationReservation : "<<use>>"

RepresentationUser ..> RepresentationReservation : "makes"
RepresentationRestaurant ..> RepresentationReservation : "hosts"
@enduml